<svg xmlns="http://www.w3.org/2000/svg" width="192" height="192" viewBox="0 0 192 192" fill="none" role="img" aria-label="pwa-icon-192">
<title>pwa-icon-192</title>
<style>
  .display { font-family: 'Baloo 2', 'Nunito', Arial, sans-serif; font-weight: 800; }
  .body { font-family: 'Nunito', Arial, sans-serif; font-weight: 700; }
</style>

<rect width="192" height="192" rx="42" fill="#FFFDF4"/>
<circle cx="96.0" cy="96.0" r="82.56" fill="#D8FFED"/>
<circle cx="145.92" cy="46.08" r="21.12" fill="#FFF1B8"/>
<circle cx="46.08" cy="149.76" r="19.20" fill="#D9F0FF"/>

<g transform="translate(96.0 92.16) scale(1.1625)" stroke-linecap="round" stroke-linejoin="round">
  <circle cx="0" cy="0" r="46" fill="#EFFFF7" stroke="#17313B" stroke-width="6"/>
  <rect x="-28" y="-29" width="56" height="36" rx="10" fill="#7CCBFF" stroke="#17313B" stroke-width="5"/>
  <path d="M-17 -11 L-7 0 L18 -25" stroke="#0D8F61" stroke-width="8" fill="none"/>
  <path d="M-43 7 C-30 -2 -15 -2 0 10 C15 -2 30 -2 43 7 L43 36 C28 29 14 30 0 42 C-14 30 -28 29 -43 36 Z" fill="#FFF7DF" stroke="#17313B" stroke-width="5"/>
  <path d="M0 10 V42" stroke="#17313B" stroke-width="4"/>
  <circle cx="26" cy="24" r="10" fill="#FFC533" stroke="#17313B" stroke-width="4"/>
  
</g>
<path d="M57.60 161.28 H134.40" stroke="#FFC533" stroke-width="8.64" stroke-linecap="round"/>

</svg>
